Coordinates
version=1
nRows=32
nColumns=22
inDegrees=yes

Units are S.I. units (second, meters, Newtons, ...)
If the header above contains a line with 'inDegrees', this indicates whether rotational values are in degrees (yes) or radians (no).

endheader
time	pelvis_tilt	pelvis_list	pelvis_rotation	pelvis_tx	pelvis_ty	pelvis_tz	hip_flexion_r	hip_adduction_r	hip_rotation_r	knee_angle_r	ankle_angle_r	subtalar_angle_r	hip_flexion_l	hip_adduction_l	hip_rotation_l	knee_angle_l	ankle_angle_l	subtalar_angle_l	lumbar_extension	lumbar_bending	lumbar_rotation
      2.71000000	      2.29586796	     -1.84427814	     -2.20934240	     -0.55217445	      0.92201762	     -0.00598037	     23.88603819	      1.00317639	     -7.08253202	    -17.63163956	     -2.81166880	      4.10909931	     -7.71969697	      0.48388073	    -12.54155835	    -16.20622841	     15.53996114	     -6.41186850	    -11.40682000	     -0.00213468	     -6.31733476
      2.72000000	      2.37511125	     -1.66274590	     -1.75265227	     -0.54222490	      0.92036965	     -0.00580360	     23.46778216	      0.79150528	     -7.49149709	    -14.61358433	     -3.19644783	      4.65036862	     -8.49983813	      0.59719002	    -12.26972211	    -16.12366225	     15.77341240	     -6.15313877	    -11.37229807	     -0.19606633	     -6.60330845
      2.73000000	      2.44806503	     -1.46993342	     -1.29772004	     -0.53227593	      0.91862907	     -0.00553140	     23.13447652	      0.55931902	     -7.81691025	    -12.08480736	     -3.51430375	      5.17710104	     -9.22256926	      0.69261167	    -11.99768218	    -16.14767857	     15.99818411	     -5.89829052	    -11.33568668	     -0.41458850	     -6.88137435
      2.74000000	      2.52443512	     -1.27172022	     -0.85942269	     -0.52231899	      0.91683919	     -0.00519172	     22.88264654	      0.30682351	     -8.03628759	    -10.09600706	     -3.69531164	      5.69421014	     -9.90157733	      0.77176727	    -11.72653001	    -16.27472569	     16.20854263	     -5.63996490	    -11.30943090	     -0.64029007	     -7.13111402
      2.75000000	      2.59866984	     -1.07927511	     -0.43174511	     -0.51235527	      0.91503172	     -0.00476442	     22.72106643	      0.03909491	     -8.18903009	     -8.67937351	     -3.73756861	      6.15379804	    -10.53255167	      0.81998733	    -11.43780806	    -16.49714137	     16.39565629	     -5.40537767	    -11.29127555	     -0.86727785	     -7.36677064
      2.76000000	      2.66552093	     -0.89360611	     -0.01641963	     -0.50235776	      0.91323179	     -0.00428574	     22.65359310	     -0.24724230	     -8.30822354	     -7.84758532	     -3.64778225	      6.49189702	    -11.11399439	      0.84174055	    -11.11823420	    -16.80783848	     16.53626911	     -5.22350948	    -11.27212383	     -1.08462683	     -7.59682292
      2.77000000	      2.72498893	     -0.72452788	      0.37336553	     -0.49227198	      0.91146695	     -0.00374837	     22.66033223	     -0.53453867	     -8.38104890	     -7.56729151	     -3.45135601	      6.70232826	    -11.67022191	      0.83756977	    -10.74902778	    -17.16419193	     16.66063439	     -5.08910564	    -11.24540960	     -1.28094105	     -7.79142127
      2.78000000	      2.80165948	     -0.59657899	      0.73870664	     -0.48207671	      0.90980497	     -0.00313781	     22.69892595	     -0.79148876	     -8.44352145	     -7.79192621	     -3.21503353	      6.83729587	    -12.21110531	      0.77270986	    -10.37795630	    -17.60122639	     16.68806853	     -4.97754687	    -11.24132470	     -1.42702443	     -7.96971148
      2.79000000	      2.87109002	     -0.50456207	      1.07169875	     -0.47170724	      0.90823990	     -0.00243845	     22.76247433	     -1.00992635	     -8.49991826	     -8.42487462	     -2.99882276	      6.85193676	    -12.73681340	      0.66414282	     -9.97495589	    -18.06885431	     16.64160080	     -4.89626210	    -11.21828461	     -1.53333911	     -8.11654993
      2.80000000	      2.92542007	     -0.46051744	      1.37260533	     -0.46113866	      0.90678479	     -0.00163978	     22.83360424	     -1.16518026	     -8.54553952	     -9.37122734	     -2.83219810	      6.72794305	    -13.23999638	      0.50275154	     -9.53391498	    -18.56373530	     16.50234515	     -4.84218432	    -11.16279920	     -1.58587483	     -8.23446510
      2.81000000	      2.95700052	     -0.47466967	      1.63466697	     -0.45035955	      0.90545203	     -0.00068208	     22.89095137	     -1.22765772	     -8.57086813	    -10.51072254	     -2.76402030	      6.39822091	    -13.70314174	      0.27768008	     -9.06352484	    -19.10712556	     16.27340791	     -4.80756430	    -11.06321276	     -1.58651499	     -8.30156033
      2.82000000	      2.96688168	     -0.57531244	      1.83011909	     -0.43932275	      0.90426631	      0.00047079	     22.91506145	     -1.14929439	     -8.55162469	    -11.74194853	     -2.84210161	      5.91713054	    -14.14605293	     -0.03429562	     -8.66016108	    -19.66540135	     15.96088891	     -4.78789467	    -10.90928022	     -1.49942739	     -8.30715531
      2.83000000	      2.95699467	     -0.77588223	      1.97871392	     -0.42806135	      0.90326288	      0.00185431	     22.87489823	     -0.90981505	     -8.49759003	    -12.93799524	     -3.05391571	      5.43262315	    -14.53709009	     -0.45713607	     -8.31169322	    -20.29648518	     15.50322282	     -4.76969826	    -10.70758732	     -1.31996458	     -8.25445240
      2.84000000	      2.92209337	     -1.07082031	      2.05210204	     -0.41658863	      0.90244861	      0.00350686	     22.79427575	     -0.50405657	     -8.38968080	    -14.06335913	     -3.42035380	      4.84778652	    -14.88378151	     -0.97285865	     -8.05056002	    -20.97449519	     14.95492939	     -4.72788943	    -10.45359546	     -1.05883126	     -8.11335342
      2.85000000	      2.87002589	     -1.44278154	      2.06844234	     -0.40491764	      0.90185079	      0.00539804	     22.68248517	      0.03561326	     -8.28031340	    -15.10972845	     -3.82886463	      4.10866624	    -15.18542887	     -1.56581942	     -7.86066467	    -21.70807798	     14.26416886	     -4.62881804	    -10.15895824	     -0.73239155	     -7.91523410
      2.86000000	      2.79388247	     -1.89285707	      2.03768076	     -0.39313276	      0.90148502	      0.00752914	     22.54384955	      0.70671460	     -8.12335326	    -16.03120134	     -4.31389894	      3.35046942	    -15.37944489	     -2.24938261	     -7.76954787	    -22.58975822	     13.39043493	     -4.49652097	     -9.82953723	     -0.34221262	     -7.66780161
      2.87000000	      2.68875439	     -2.40370929	      1.94411758	     -0.38127202	      0.90135140	      0.00989426	     22.41020632	      1.48448288	     -7.89693087	    -16.86940701	     -4.86876828	      2.72943781	    -15.45074938	     -2.99817364	     -7.78310161	    -23.63102907	     12.36064523	     -4.37992060	     -9.46724947	      0.09296923	     -7.35438439
      2.88000000	      2.58921264	     -2.92684018	      1.80281519	     -0.36933066	      0.90148821	      0.01241525	     22.27345020	      2.29404031	     -7.67299324	    -17.71009630	     -5.28730473	      2.00702189	    -15.43149840	     -3.76212158	     -7.86216834	    -24.82737713	     11.09467184	     -4.15212944	     -9.11292113	      0.52908116	     -7.01387122
      2.89000000	      2.49918753	     -3.42783793	      1.63008236	     -0.35736969	      0.90190265	      0.01501695	     22.13162224	      3.08229921	     -7.44423331	    -18.57575196	     -5.56008545	      1.36522199	    -15.29244009	     -4.50779502	     -7.96840040	    -26.21767273	      9.57580724	     -3.84839700	     -8.78150333	      0.93065281	     -6.65510775
      2.90000000	      2.43658009	     -3.86306226	      1.45406122	     -0.34545589	      0.90258078	      0.01761051	     21.97134437	      3.78438295	     -7.24323815	    -19.49569896	     -5.59170666	      0.72809666	    -15.01734535	     -5.19993629	     -8.06075852	    -27.83875001	      7.81121905	     -3.33543505	     -8.50250414	      1.25799815	     -6.34331217
      2.91000000	      2.39020728	     -4.25540512	      1.25846218	     -0.33361319	      0.90350832	      0.02018321	     21.76507800	      4.43334428	     -7.02114269	    -20.38561590	     -5.54522635	      0.36349340	    -14.58691323	     -5.85399461	     -8.12951734	    -29.69035904	      5.81273820	     -2.82186683	     -8.26002385	      1.53751703	     -6.01055615
      2.92000000	      2.37166212	     -4.59024723	      1.06675488	     -0.32190685	      0.90466139	      0.02268732	     21.48497729	      5.01113358	     -6.78867824	    -21.21326973	     -5.40933763	      0.10713896	    -13.99208644	     -6.46589495	     -8.14536648	    -31.78428891	      3.59520379	     -2.24551433	     -8.07322077	      1.75539905	     -5.69277007
      2.93000000	      2.37916667	     -4.86178534	      0.90649527	     -0.31036935	      0.90598277	      0.02505089	     21.11874856	      5.50316322	     -6.58871626	    -21.94985885	     -5.12135913	     -0.11735390	    -13.22679696	     -7.02432689	     -8.02966735	    -34.10110769	      1.20302801	     -1.54368746	     -7.93634091	      1.91217518	     -5.39873251
      2.94000000	      2.41638988	     -5.08517623	      0.77654464	     -0.29904783	      0.90743679	      0.02727462	     20.64687492	      5.93500675	     -6.39564100	    -22.55176528	     -4.72740820	     -0.32875927	    -12.29449548	     -7.54211902	     -7.78704586	    -36.63103839	     -1.30569975	     -0.82925827	     -7.85772831	      2.02228166	     -5.11837917
      2.95000000	      2.47764927	     -5.25893031	      0.67710043	     -0.28798182	      0.90897360	      0.02936487	     20.06633787	      6.31046691	     -6.21018117	    -22.98776991	     -4.29060202	     -0.55518204	    -11.19331787	     -8.01397902	     -7.43025381	    -39.35382314	     -3.85853154	     -0.19071153	     -7.83161380	      2.08008315	     -4.83596205
      2.96000000	      2.55697513	     -5.39844551	      0.60791762	     -0.27718931	      0.91052684	      0.03129649	     19.39850563	      6.64479880	     -6.03060801	    -23.28152139	     -3.78890228	     -0.81756036	     -9.93759299	     -8.43477353	     -6.93457149	    -42.22268898	     -6.39457512	      0.33752224	     -7.85050387	      2.10898497	     -4.54332550
      2.97000000	      2.64090965	     -5.50990121	      0.56966766	     -0.26669101	      0.91203809	      0.03308862	     18.66385194	      6.94581513	     -5.86513060	    -23.43576033	     -3.25779240	     -1.12225869	     -8.52582934	     -8.80668552	     -6.33049961	    -45.20087281	     -8.86057726	      0.71847746	     -7.90152664	      2.10936266	     -4.24681796
      2.98000000	      2.73110072	     -5.59741697	      0.55799197	     -0.25647647	      0.91347170	      0.03472493	     17.87221893	      7.21485136	     -5.71998848	    -23.47031147	     -2.69756727	     -1.45808119	     -6.98959584	     -9.12527861	     -5.65534020	    -48.22419532	    -11.18834168	      0.93488289	     -7.98277983	      2.09050619	     -3.93666870
      2.99000000	      2.82316141	     -5.66923110	      0.56745079	     -0.24652411	      0.91481220	      0.03621126	     17.03601688	      7.45832102	     -5.59924430	    -23.39853991	     -2.12316981	     -1.80994353	     -5.35726953	     -9.39256851	     -4.93891482	    -51.22202386	    -13.32684206	      1.00749842	     -8.08670382	      2.06101544	     -3.60845199
      3.00000000	      2.91258072	     -5.72210418	      0.58579619	     -0.23681535	      0.91604024	      0.03758001	     16.17825330	      7.67499891	     -5.49464959	    -23.25887895	     -1.51770689	     -2.18416091	     -3.65690282	     -9.61095223	     -4.23845999	    -54.13039084	    -15.17960478	      0.99394392	     -8.20421852	      2.01504049	     -3.28384325
      3.01000000	      3.01557171	     -5.76216513	      0.60820013	     -0.22726744	      0.91723767	      0.03882143	     15.26529452	      7.86342825	     -5.44141455	    -23.02237629	     -0.94531657	     -2.51696537	     -1.95351657	     -9.77781909	     -3.56389682	    -56.86204070	    -16.69746029	      0.94766926	     -8.34359023	      1.95892133	     -2.90384149
      3.02000000	      3.11126295	     -5.77682718	      0.61603009	     -0.21791826	      0.91835836	      0.03997607	     14.35314809	      8.01914473	     -5.37032568	    -22.75418156	     -0.35490075	     -2.85548299	     -0.23921252	     -9.89286307	     -2.96599583	    -59.39922501	    -17.74488675	      0.92289224	     -8.48480733	      1.88103798	     -2.53550573
